<svg width="20" height="21" viewBox="0 0 20 21" fill="none" xmlns="http://www.w3.org/2000/svg">
<path d="M9.75155 8.33881L9.60482 9.07432L9.75155 8.33881ZM10.9524 9.05493C10.7453 9.41365 10.8682 9.87234 11.2269 10.0795C11.5856 10.2866 12.0443 10.1637 12.2514 9.80493L10.9524 9.05493ZM0.803848 13.9282L0.342597 13.3368C0.145908 13.4902 0.0383573 13.7314 0.0556536 13.9802C0.0729489 14.229 0.212828 14.453 0.428848 14.5777L0.803848 13.9282ZM11.1962 19.9282L10.8212 20.5777C11.0372 20.7024 11.3011 20.7116 11.5252 20.6022C11.7494 20.4927 11.9044 20.279 11.9389 20.032L11.1962 19.9282ZM5.47027 10.6457L11.7057 14.2457L12.4557 12.9467L6.22027 9.34668L5.47027 10.6457ZM12.7835 13.8579C13.0271 13.2036 13.2382 12.1578 13.0904 11.0821C12.9394 9.98244 12.402 8.81009 11.1157 8.06748L10.3657 9.36651C11.158 9.8239 11.5002 10.528 11.6044 11.2862C11.7118 12.0686 11.5536 12.8623 11.3778 13.3345L12.7835 13.8579ZM11.1157 8.06748C10.714 7.83552 10.3056 7.68456 9.89828 7.60331L9.60482 9.07432C9.84874 9.12298 10.1032 9.21495 10.3657 9.36651L11.1157 8.06748ZM9.89828 7.60331C8.82365 7.38892 7.83044 7.67142 7.04783 8.08414C6.26814 8.49533 5.64439 9.06207 5.26721 9.51835L6.42334 10.474C6.68958 10.152 7.16296 9.71924 7.74755 9.41094C8.32923 9.10418 8.96744 8.94717 9.60482 9.07432L9.89828 7.60331ZM10.4011 8.71381L13.1513 3.95032L11.8522 3.20032L9.10203 7.96381L10.4011 8.71381ZM13.1513 3.95032C13.1845 3.8928 13.2205 3.82406 13.2429 3.7824C13.2695 3.73269 13.2911 3.6939 13.3125 3.6596C13.3578 3.58674 13.3792 3.57245 13.3739 3.57627C13.3681 3.58037 13.356 3.5875 13.3395 3.59247C13.3227 3.59754 13.314 3.59656 13.3194 3.59683C13.3355 3.59762 13.4294 3.60837 13.625 3.72131L14.375 2.42227C14.051 2.23522 13.7233 2.11481 13.3928 2.09862C13.0435 2.08152 12.7423 2.18378 12.5012 2.35622C12.2767 2.51682 12.1311 2.71886 12.0388 2.86723C11.9914 2.94355 11.9515 3.0166 11.9211 3.07314C11.8865 3.13773 11.87 3.16963 11.8522 3.20032L13.1513 3.95032ZM13.625 3.72131C13.8392 3.84499 13.9206 3.92877 13.9448 3.95991C13.9562 3.97456 13.9313 3.94274 13.9318 3.88614C13.9322 3.85263 13.9424 3.86019 13.9028 3.94131C13.8842 3.97926 13.8599 4.02337 13.8263 4.08087C13.8031 4.12065 13.7453 4.21749 13.7125 4.27432L15.0115 5.02432C15.0637 4.93394 15.1742 4.75586 15.2504 4.60009C15.333 4.43106 15.4291 4.18882 15.4318 3.90007C15.438 3.23014 14.9691 2.76526 14.375 2.42227L13.625 3.72131ZM13.7125 4.27432L10.9524 9.05493L12.2514 9.80493L15.0115 5.02432L13.7125 4.27432ZM5.38402 9.4048L0.342597 13.3368L1.2651 14.5196L6.30652 10.5876L5.38402 9.4048ZM11.9389 20.032L12.8234 13.7L11.3379 13.4924L10.4534 19.8244L11.9389 20.032ZM0.428848 14.5777L3.02692 16.0777L3.77692 14.7787L1.17885 13.2787L0.428848 14.5777ZM3.02692 16.0777L5.625 17.5777L6.375 16.2787L3.77692 14.7787L3.02692 16.0777ZM5.625 17.5777L8.22308 19.0777L8.97308 17.7787L6.375 16.2787L5.625 17.5777ZM8.22308 19.0777L10.8212 20.5777L11.5712 19.2787L8.97308 17.7787L8.22308 19.0777Z" fill="black"/>
<path d="M3.65192 14.9952L5.76795 13.3301" stroke="black" stroke-width="1.5" stroke-linecap="round"/>
<path d="M8.84808 17.9952L9.23205 15.3301" stroke="black" stroke-width="1.5" stroke-linecap="round"/>
<path d="M6.25 16.4952L7 15.1962" stroke="black" stroke-width="1.5" stroke-linecap="round"/>
</svg>
